<svg height="453.1" width="453.1" xmlns="http://www.w3.org/2000/svg">
  <path d="M210.5 41.4l-58 115.4-132 18.5c-9.2 1.5-14.7 5.3-14.7 11.5 0 3.5 1.8 7.7 6.5 12.6l95.2 89.2L85 415.4l-.5 5c0 3.7.9 6.7 2.7 9.3 1.8 2.2 4.6 3.4 8.3 3.4 4.5-.2 7.3-1.2 11.2-3l116.6-59.8V31.6c-4.3 0-9.5 3-12.8 9.8z"/>
  <path d="M235.2 41.4l58.2 115.4L426 175.3c9.3 1.5 14.8 5.3 14.8 11.5 0 3.5-1.8 7.7-6.5 12.6l-95.7 89.2 22.6 126.8.5 5c0 3.7-.9 6.7-2.7 9.3-1.8 2.2-4.6 3.4-8.3 3.4-4.5-.2-7.3-1.2-11.3-3l-117.1-59.8V31.6c4.3 0 9.5 3 12.9 9.8z"/>
</svg>
